<svg width="40" height="40" viewBox="0 0 40 40" fill="none" xmlns="http://www.w3.org/2000/svg">
<g clip-path="url(#clip0_1523_2676)">
<path d="M3.33333 33.3333H20C20.8841 33.3333 21.7319 33.6845 22.357 34.3096C22.9821 34.9348 23.3333 35.7826 23.3333 36.6667C23.3333 37.5507 22.9821 38.3986 22.357 39.0237C21.7319 39.6488 20.8841 40 20 40H3.33333C2.44928 40 1.60143 39.6488 0.976311 39.0237C0.35119 38.3986 0 37.5507 0 36.6667C0 35.7826 0.35119 34.9348 0.976311 34.3096C1.60143 33.6845 2.44928 33.3333 3.33333 33.3333ZM19.5867 9.51167C19.555 9.58 17.8717 12.1783 17.8717 12.1783C18.0984 12.4142 18.2507 12.7115 18.3095 13.0333C18.3684 13.3551 18.3313 13.6871 18.2029 13.9879C18.0744 14.2887 17.8602 14.5451 17.5871 14.7251C17.3139 14.9051 16.9938 15.0007 16.6667 15H6.66667C6.34002 15 6.02056 14.9041 5.74799 14.7241C5.47542 14.544 5.26176 14.2879 5.13356 13.9875C5.00536 13.687 4.96827 13.3555 5.0269 13.0342C5.08553 12.7128 5.23729 12.4158 5.46333 12.18C5.46333 12.18 3.78333 9.58 3.75 9.51167C3.43939 8.85156 3.30046 8.12371 3.34609 7.3956C3.39172 6.66749 3.62045 5.96269 4.01105 5.34653C4.40166 4.73037 4.9415 4.2228 5.58054 3.87087C6.21958 3.51895 6.93713 3.33405 7.66667 3.33333H10.0167V1.66667C10.0167 1.22464 10.1923 0.800716 10.5048 0.488155C10.8174 0.175595 11.2413 0 11.6833 0C12.1254 0 12.5493 0.175595 12.8618 0.488155C13.1744 0.800716 13.35 1.22464 13.35 1.66667V3.33333H15.6667C16.3965 3.33349 17.1144 3.51798 17.7539 3.86967C18.3934 4.22137 18.9337 4.72888 19.3247 5.34513C19.7157 5.96137 19.9447 6.66639 19.9905 7.39477C20.0363 8.12315 19.8974 8.8513 19.5867 9.51167ZM36.6667 33.3333H25.7717C26.3579 34.3464 26.6666 35.4962 26.6666 36.6667C26.6666 37.8371 26.3579 38.9869 25.7717 40H36.6667C37.5507 40 38.3986 39.6488 39.0237 39.0237C39.6488 38.3986 40 37.5507 40 36.6667C40.011 36.2259 39.9323 35.7876 39.7686 35.3782C39.605 34.9688 39.3599 34.5969 39.0481 34.2852C38.7364 33.9735 38.3645 33.7283 37.9552 33.5647C37.5458 33.4011 37.1074 33.3224 36.6667 33.3333ZM19.5617 30C18.4164 26.182 17.5661 22.2816 17.0183 18.3333H6.31833C5.77297 22.2822 4.92208 26.1828 3.77333 30H19.5617ZM23.3333 17.885V30H36.6667V17.885C37.1731 17.5926 37.5938 17.1721 37.8863 16.6657C38.1789 16.1593 38.333 15.5848 38.3333 15V13.3333C38.3333 12.8913 38.1577 12.4674 37.8452 12.1548C37.5326 11.8423 37.1087 11.6667 36.6667 11.6667C36.2246 11.6667 35.8007 11.8423 35.4882 12.1548C35.1756 12.4674 35 12.8913 35 13.3333V15H31.6667V13.3333C31.6667 12.8913 31.4911 12.4674 31.1785 12.1548C30.866 11.8423 30.442 11.6667 30 11.6667C29.558 11.6667 29.1341 11.8423 28.8215 12.1548C28.5089 12.4674 28.3333 12.8913 28.3333 13.3333V15H25V13.3333C25 12.8913 24.8244 12.4674 24.5118 12.1548C24.1993 11.8423 23.7754 11.6667 23.3333 11.6667C22.8913 11.6667 22.4674 11.8423 22.1548 12.1548C21.8423 12.4674 21.6667 12.8913 21.6667 13.3333V15C21.667 15.5848 21.8211 16.1593 22.1137 16.6657C22.4062 17.1721 22.8269 17.5926 23.3333 17.885Z" fill="#2E3C91"/>
</g>
<defs>
<clipPath id="clip0_1523_2676">
<rect width="40" height="40" fill="white"/>
</clipPath>
</defs>
</svg>
