<svg width="40" height="40" viewBox="0 0 40 40" fill="none" xmlns="http://www.w3.org/2000/svg">
<g clip-path="url(#clip0_1523_2598)">
<path d="M24.1671 20.8338C24.1671 21.9389 23.7281 22.9987 22.9467 23.7801C22.1653 24.5615 21.1055 25.0005 20.0005 25.0005C18.8954 25.0005 17.8356 24.5615 17.0542 23.7801C16.2728 22.9987 15.8338 21.9389 15.8338 20.8338C15.8338 19.7287 16.2728 18.6689 17.0542 17.8875C17.8356 17.1061 18.8954 16.6671 20.0005 16.6671C21.1055 16.6671 22.1653 17.1061 22.9467 17.8875C23.7281 18.6689 24.1671 19.7287 24.1671 20.8338ZM36.1355 19.0455L31.7955 25.2471C31.4881 25.686 31.0795 26.0443 30.6043 26.2918C30.1291 26.5392 29.6012 26.6686 29.0655 26.6688H10.9371C10.4012 26.6691 9.8732 26.54 9.39791 26.2925C8.92261 26.045 8.5141 25.6864 8.20712 25.2471L3.86712 19.0455C3.6063 18.7021 3.22265 18.473 2.79662 18.4063C2.37058 18.3396 1.93527 18.4404 1.58197 18.6877C1.22866 18.9349 0.984817 19.3093 0.901572 19.7325C0.818326 20.1556 0.902146 20.5945 1.13545 20.9571L5.47545 27.1588C6.09058 28.0365 6.90807 28.7531 7.85875 29.2481C8.80943 29.743 9.86533 30.0016 10.9371 30.0021H13.3338V38.3355C13.3338 38.7775 13.5094 39.2014 13.8219 39.514C14.1345 39.8266 14.5584 40.0021 15.0005 40.0021H25.0005C25.4425 40.0021 25.8664 39.8266 26.179 39.514C26.4915 39.2014 26.6671 38.7775 26.6671 38.3355V30.0021H29.0638C30.1356 30.0016 31.1915 29.743 32.1422 29.2481C33.0928 28.7531 33.9103 28.0365 34.5255 27.1588L38.8655 20.9571C39.119 20.5949 39.2182 20.1468 39.1413 19.7114C39.0644 19.276 38.8177 18.889 38.4555 18.6355C38.0932 18.382 37.6451 18.2828 37.2097 18.3596C36.7743 18.4365 36.389 18.6832 36.1355 19.0455ZM15.0005 8.33381H18.3338V9.91548C18.3338 10.7755 19.3721 11.2055 19.9805 10.5971L22.9255 7.65215C23.055 7.52274 23.1578 7.36907 23.2279 7.19991C23.2981 7.03075 23.3342 6.84943 23.3342 6.66631C23.3342 6.4832 23.2981 6.30188 23.2279 6.13272C23.1578 5.96356 23.055 5.80989 22.9255 5.68048L19.9805 2.73548C19.8455 2.6008 19.6737 2.50912 19.4867 2.472C19.2997 2.43487 19.1058 2.45398 18.9297 2.52691C18.7535 2.59983 18.6029 2.72331 18.4969 2.88175C18.3908 3.04018 18.3341 3.22649 18.3338 3.41715V4.99881H15.0005C14.5584 4.99881 14.1345 5.17441 13.8219 5.48697C13.5094 5.79953 13.3338 6.22345 13.3338 6.66548C13.3338 7.10751 13.5094 7.53143 13.8219 7.84399C14.1345 8.15655 14.5584 8.33381 15.0005 8.33381ZM38.9621 11.3055C38.8515 11.4945 38.7046 11.6598 38.5299 11.7919C38.3552 11.924 38.1562 12.0203 37.9442 12.0752C37.7322 12.1302 37.5114 12.1428 37.2946 12.1122C37.0777 12.0817 36.869 12.0086 36.6805 11.8971L36.4521 11.7621C35.7992 12.364 35.0169 12.8082 34.1655 13.0605V13.3321C34.1655 13.7742 33.9899 14.1981 33.6773 14.5107C33.3647 14.8232 32.9408 14.9988 32.4988 14.9988C32.0568 14.9988 31.6328 14.8232 31.3203 14.5107C31.0077 14.1981 30.8321 13.7742 30.8321 13.3321V13.0605C29.9808 12.8078 29.1986 12.3637 28.5455 11.7621L28.3171 11.8971C28.1285 12.0081 27.9198 12.0808 27.703 12.1112C27.4862 12.1415 27.2656 12.1288 27.0537 12.0739C26.8419 12.0189 26.6429 11.9228 26.4682 11.7909C26.2935 11.6591 26.1464 11.4941 26.0355 11.3055C25.9245 11.1168 25.8518 10.9081 25.8214 10.6914C25.7911 10.4746 25.8038 10.254 25.8587 10.0421C25.9137 9.83024 26.0098 9.63126 26.1417 9.45654C26.2735 9.28182 26.4385 9.13478 26.6271 9.02381L26.8505 8.89215C26.7405 8.44381 26.6638 7.98215 26.6638 7.50048C26.6638 7.01881 26.7388 6.55715 26.8505 6.10881L26.6271 5.97715C26.2461 5.75304 25.9697 5.38675 25.8587 4.95885C25.7478 4.53096 25.8113 4.07651 26.0355 3.69548C26.2596 3.31445 26.6259 3.03806 27.0537 2.9271C27.4816 2.81614 27.9361 2.87971 28.3171 3.10381L28.5455 3.23881C29.1984 2.63692 29.9807 2.19276 30.8321 1.94048V1.66881C30.8321 1.22679 31.0077 0.802863 31.3203 0.490303C31.6328 0.177742 32.0568 0.00214744 32.4988 0.00214744C32.9408 0.00214744 33.3647 0.177742 33.6773 0.490303C33.9899 0.802863 34.1655 1.22679 34.1655 1.66881V1.94048C35.0271 2.20048 35.8071 2.64048 36.4521 3.23881L36.6805 3.10381C37.0615 2.87971 37.5159 2.81614 37.9438 2.9271C38.3717 3.03806 38.738 3.31445 38.9621 3.69548C39.1862 4.07651 39.2498 4.53096 39.1388 4.95885C39.0279 5.38675 38.7515 5.75304 38.3705 5.97715L38.1471 6.10881C38.2571 6.55715 38.3338 7.01881 38.3338 7.50048C38.3338 7.98215 38.2588 8.44381 38.1471 8.89215L38.3705 9.02381C38.5591 9.13477 38.7241 9.28181 38.8559 9.45653C38.9878 9.63125 39.0839 9.83023 39.1389 10.0421C39.1938 10.254 39.2065 10.4746 39.1762 10.6914C39.1458 10.9081 39.0731 11.1168 38.9621 11.3055ZM35.0005 7.50048C35.0005 6.12215 33.8788 5.00048 32.5005 5.00048C31.1221 5.00048 30.0005 6.12215 30.0005 7.50048C30.0005 8.87881 31.1221 10.0005 32.5005 10.0005C33.8788 10.0005 35.0005 8.87881 35.0005 7.50048ZM4.95212 15.0005H6.61879C7.06081 15.0005 7.48474 14.8249 7.7973 14.5123C8.10986 14.1998 8.28545 13.7758 8.28545 13.3338V11.6671H3.28545V13.3338C3.28545 13.7758 3.46105 14.1998 3.77361 14.5123C4.08617 14.8249 4.51009 15.0005 4.95212 15.0005ZM2.45212 10.0005H9.11879C10.7855 9.16715 11.6188 7.43215 11.6188 5.83381C11.6206 4.95494 11.4231 4.08709 11.0412 3.29554C10.6593 2.50399 10.1029 1.80933 9.41379 1.26381C8.71842 0.713043 7.90713 0.327275 7.04103 0.135579C6.17493 -0.056118 5.27662 -0.0487431 4.41379 0.157147C3.36604 0.403769 2.40788 0.937814 1.64706 1.69922C0.886234 2.46063 0.352929 3.41921 0.107119 4.46715C-0.366214 6.52048 0.785452 9.16715 2.45212 10.0005Z" fill="#2E3C91"/>
</g>
<defs>
<clipPath id="clip0_1523_2598">
<rect width="40" height="40" fill="white"/>
</clipPath>
</defs>
</svg>
