<svg width="40" height="40" viewBox="0 0 40 40" fill="none" xmlns="http://www.w3.org/2000/svg">
<g clip-path="url(#clip0_1523_2652)">
<path d="M19.9997 26.6664C23.6764 26.6664 26.6664 23.6764 26.6664 19.9997C26.6664 16.3231 23.6764 13.3331 19.9997 13.3331C16.323 13.3331 13.333 16.3231 13.333 19.9997C13.333 23.6764 16.323 26.6664 19.9997 26.6664ZM19.9997 28.3331C14.4847 28.3331 9.99971 32.8181 9.99971 38.3331C9.99971 38.7751 10.1753 39.199 10.4879 39.5116C10.8004 39.8241 11.2243 39.9997 11.6664 39.9997H28.333C28.7751 39.9997 29.199 39.8241 29.5116 39.5116C29.8241 39.199 29.9997 38.7751 29.9997 38.3331C29.9997 32.8181 25.5147 28.3331 19.9997 28.3331ZM9.66804 15.8647C10.028 16.8464 8.79637 17.7614 7.95971 17.1364L5.77804 15.6164L3.60304 17.1364C2.77304 17.7597 1.54971 16.8597 1.89971 15.8814L2.67471 13.4547L0.643039 12.0397C-0.251961 11.4581 0.219706 9.93807 1.28971 9.97307H3.94804L4.56637 7.60474C4.84637 6.37474 6.72304 6.37641 7.00304 7.60474L7.62137 9.97307H10.263C11.3297 9.93807 11.7997 11.4481 10.908 12.0297L8.87304 13.4514L9.66637 15.8631L9.66804 15.8647ZM39.513 12.0314L37.478 13.4531L38.2714 15.8647C38.6314 16.8464 37.3997 17.7614 36.563 17.1364L34.3814 15.6164L32.2064 17.1364C31.3764 17.7597 30.1547 16.8581 30.503 15.8814L31.278 13.4547L29.2464 12.0397C28.3514 11.4581 28.823 9.93807 29.893 9.97307H32.5514L33.1697 7.60474C33.4497 6.37474 35.3264 6.37641 35.6064 7.60474L36.2247 9.97307H38.8664C39.933 9.93807 40.403 11.4481 39.5114 12.0297L39.513 12.0314ZM14.413 4.19141C14.4668 3.9415 14.6047 3.71762 14.8037 3.55716C15.0027 3.39669 15.2507 3.30936 15.5064 3.30974H18.1647L18.783 0.941406C19.063 -0.288594 20.9397 -0.286927 21.2197 0.941406L21.838 3.30974H24.4797C25.5464 3.27474 26.0164 4.78474 25.1247 5.36641L23.0897 6.78807L23.883 9.19974C24.243 10.1814 23.0097 11.0964 22.1747 10.4714L19.993 8.95141L17.818 10.4714C16.988 11.0947 15.7647 10.1947 16.1147 9.21641L16.8897 6.78974L14.858 5.37474C14.6727 5.24579 14.5308 5.06367 14.451 4.85241C14.3713 4.64115 14.3591 4.41068 14.413 4.19141Z" fill="#2E3C91"/>
</g>
<defs>
<clipPath id="clip0_1523_2652">
<rect width="40" height="40" fill="white"/>
</clipPath>
</defs>
</svg>
