<svg width="40" height="40" viewBox="0 0 40 40" fill="none" xmlns="http://www.w3.org/2000/svg">
<path d="M39.9999 38.3336C39.9999 38.7757 39.8243 39.1996 39.5118 39.5121C39.1992 39.8247 38.7753 40.0003 38.3333 40.0003H1.6666C1.22457 40.0003 0.800647 39.8247 0.488087 39.5121C0.175526 39.1996 -6.86293e-05 38.7757 -6.86293e-05 38.3336C-6.86293e-05 37.8916 0.175526 37.4677 0.488087 37.1551C0.800647 36.8425 1.22457 36.667 1.6666 36.667H38.3333C38.7753 36.667 39.1992 36.8425 39.5118 37.1551C39.8243 37.4677 39.9999 37.8916 39.9999 38.3336ZM1.03826 29.932C6.88827 32.3136 13.2433 33.5203 19.9266 33.522H19.9366C26.7266 33.522 33.1299 32.2936 38.9699 29.8736C39.3615 29.6931 39.6679 29.3679 39.825 28.9664C39.982 28.5649 39.9775 28.1181 39.8124 27.7198C39.6473 27.3215 39.3345 27.0026 38.9394 26.8299C38.5443 26.6573 38.0977 26.6442 37.6933 26.7936C32.2583 29.047 26.2816 30.1886 19.9299 30.1886C13.6783 30.1886 7.74327 29.0636 2.29326 26.8453C1.88599 26.6888 1.43361 26.6983 1.03325 26.8717C0.632892 27.0451 0.316486 27.3686 0.151972 27.7727C-0.0125418 28.1767 -0.0120465 28.6292 0.153352 29.0329C0.31875 29.4367 0.635862 29.7594 1.0366 29.932H1.03826ZM17.8066 18.257C18.4133 18.8636 19.2083 19.1653 20.0049 19.1653C20.8016 19.1653 21.5966 18.862 22.2033 18.257L27.0166 13.4436C27.1713 13.2889 27.2941 13.1052 27.3778 12.903C27.4616 12.7008 27.5047 12.4841 27.5047 12.2653C27.5047 12.0465 27.4616 11.8298 27.3778 11.6276C27.2941 11.4254 27.1713 11.2417 27.0166 11.087C26.8619 10.9322 26.6782 10.8095 26.476 10.7257C26.2738 10.642 26.0571 10.5989 25.8383 10.5989C25.6194 10.5989 25.4027 10.642 25.2006 10.7257C24.9984 10.8095 24.8147 10.9322 24.6599 11.087L21.6699 14.077L21.6666 1.66862C21.6666 1.22659 21.491 0.802669 21.1784 0.490109C20.8659 0.177548 20.442 0.00195313 19.9999 0.00195312C19.5579 0.00195313 19.134 0.177548 18.8214 0.490109C18.5089 0.802669 18.3333 1.22659 18.3333 1.66862L18.3366 14.0736L15.3499 11.087C15.1952 10.9322 15.0115 10.8095 14.8093 10.7257C14.6071 10.642 14.3904 10.5989 14.1716 10.5989C13.9528 10.5989 13.7361 10.642 13.5339 10.7257C13.3317 10.8095 13.148 10.9322 12.9933 11.087C12.8385 11.2417 12.7158 11.4254 12.632 11.6276C12.5483 11.8298 12.5052 12.0465 12.5052 12.2653C12.5052 12.4841 12.5483 12.7008 12.632 12.903C12.7158 13.1052 12.8385 13.2889 12.9933 13.4436L17.8066 18.257ZM19.9899 26.667H20.0033C30.0266 26.662 37.0049 20.477 39.5399 17.817C39.8449 17.4969 40.0103 17.0688 39.9997 16.6269C39.9891 16.1849 39.8033 15.7653 39.4833 15.4603C39.1632 15.1553 38.7352 14.9899 38.2932 15.0005C37.8512 15.0112 37.4316 15.1969 37.1266 15.517C34.8866 17.867 28.7333 23.332 19.9966 23.3336C11.2849 23.3336 5.11827 17.8653 2.8716 15.5153C2.56616 15.1957 2.14627 15.0105 1.70431 15.0005C1.26235 14.9905 0.834517 15.1565 0.514931 15.462C0.195346 15.7674 0.010185 16.1873 0.000183056 16.6292C-0.00981888 17.0712 0.156157 17.499 0.461598 17.8186C3.00326 20.4786 9.99493 26.662 19.9883 26.667H19.9899Z" fill="#2E3C91"/>
</svg>
