<svg width="16" height="16" viewBox="0 0 16 16" fill="none" xmlns="http://www.w3.org/2000/svg">
<g clip-path="url(#clip0_963_6035)">
<path d="M10.0001 16H6.00008C4.16208 16 2.66675 14.5047 2.66675 12.6667V3.33333C2.66675 1.49533 4.16208 0 6.00008 0H10.0001C11.8381 0 13.3334 1.49533 13.3334 3.33333V12.6667C13.3334 14.5047 11.8381 16 10.0001 16ZM6.00008 1.33333C4.89741 1.33333 4.00008 2.23067 4.00008 3.33333V12.6667C4.00008 13.7693 4.89741 14.6667 6.00008 14.6667H10.0001C11.1027 14.6667 12.0001 13.7693 12.0001 12.6667V3.33333C12.0001 2.23067 11.1027 1.33333 10.0001 1.33333H6.00008ZM9.33342 12.6667C9.33342 12.4899 9.26318 12.3203 9.13815 12.1953C9.01313 12.0702 8.84356 12 8.66675 12H7.33342C7.1566 12 6.98703 12.0702 6.86201 12.1953C6.73699 12.3203 6.66675 12.4899 6.66675 12.6667C6.66675 12.8435 6.73699 13.013 6.86201 13.1381C6.98703 13.2631 7.1566 13.3333 7.33342 13.3333H8.66675C8.84356 13.3333 9.01313 13.2631 9.13815 13.1381C9.26318 13.013 9.33342 12.8435 9.33342 12.6667Z" fill="white"/>
</g>
<defs>
<clipPath id="clip0_963_6035">
<rect width="16" height="16" fill="white"/>
</clipPath>
</defs>
</svg>
