<svg width="16" height="16" viewBox="0 0 16 16" fill="none" xmlns="http://www.w3.org/2000/svg">
<g clip-path="url(#clip0_963_6053)">
<path d="M11.6875 16C10.8171 16 9.98987 15.7466 9.27734 15.2642C6.96887 15.6677 4.54503 14.9748 2.78503 13.215C1.02588 11.4557 0.332156 9.03209 0.735844 6.72266C0.253406 6.01016 0 5.18288 0 4.3125C0 1.93456 1.93456 0 4.3125 0C5.18288 0 6.01013 0.253438 6.72266 0.735844C11.7547 -0.143812 16.1471 4.22694 15.2642 9.27734C15.7466 9.98984 16 10.8171 16 11.6875C16 14.0654 14.0654 16 11.6875 16ZM9.80834 14.1057C10.3498 14.5272 10.9996 14.75 11.6875 14.75C13.3761 14.75 14.75 13.3763 14.75 11.6875C14.75 10.9996 14.5272 10.3498 14.1057 9.80834C14.0496 9.73631 14.01 9.65286 13.9896 9.56386C13.9693 9.47485 13.9687 9.38247 13.9879 9.29322C14.9249 4.93103 11.0387 1.08141 6.70678 2.01209C6.61752 2.03127 6.52515 2.03065 6.43616 2.0103C6.34716 1.98995 6.26371 1.95035 6.19166 1.89428C5.65016 1.47281 5.00037 1.25 4.3125 1.25C2.62391 1.25 1.25 2.62375 1.25 4.3125C1.25 5.00037 1.47278 5.65016 1.89428 6.19166C1.95038 6.26369 1.99 6.34714 2.01035 6.43614C2.03071 6.52515 2.0313 6.61753 2.01209 6.70678C1.07716 11.0592 4.95116 14.9207 9.29322 13.9879C9.38247 13.9687 9.47485 13.9693 9.56385 13.9897C9.65285 14.01 9.7363 14.0496 9.80834 14.1057ZM11.0834 9.84375C11.0834 8.156 8.94972 7.64012 8.47216 7.49353C7.48291 7.18994 6.16663 6.85144 6.16663 6.15625C6.16663 5.49563 7.00622 4.9375 8 4.9375C8.79062 4.9375 9.51147 5.29553 9.75306 5.80813C9.90025 6.12025 10.2727 6.25416 10.5849 6.10694C10.8971 5.95972 11.0309 5.58741 10.8838 5.27516C10.392 4.23181 9.16894 3.6875 8 3.6875C6.18141 3.6875 4.91663 4.87012 4.91663 6.15625C4.91663 7.844 7.05028 8.35987 7.52784 8.50647C8.51709 8.81006 9.83337 9.14856 9.83337 9.84375C9.83337 10.5044 8.99378 11.0625 8 11.0625C7.20937 11.0625 6.48853 10.7045 6.24694 10.1919C6.09975 9.87975 5.72728 9.74584 5.41506 9.89306C5.10291 10.0403 4.96912 10.4126 5.11622 10.7248C5.60803 11.7682 6.83106 12.3125 8 12.3125C9.81859 12.3125 11.0834 11.1299 11.0834 9.84375Z" fill="white"/>
</g>
<defs>
<clipPath id="clip0_963_6053">
<rect width="16" height="16" fill="white"/>
</clipPath>
</defs>
</svg>
