<svg width="16" height="17" viewBox="0 0 16 17" fill="none" xmlns="http://www.w3.org/2000/svg">
<g clip-path="url(#clip0_1395_5936)">
<path d="M8.66634 13.8333C9.55007 13.8323 10.3973 13.4808 11.0222 12.8559C11.6471 12.231 11.9986 11.3837 11.9997 10.5V4.66201C12.0007 4.31158 11.9322 3.96444 11.7981 3.64069C11.6639 3.31694 11.4669 3.02304 11.2183 2.77601L9.72367 1.28135C9.47665 1.03279 9.18274 0.835747 8.859 0.701625C8.53525 0.567503 8.1881 0.498975 7.83767 0.500012H4.66634C3.78261 0.50107 2.93538 0.8526 2.31049 1.47749C1.6856 2.10238 1.33407 2.94961 1.33301 3.83334V10.5C1.33407 11.3837 1.6856 12.231 2.31049 12.8559C2.93538 13.4808 3.78261 13.8323 4.66634 13.8333H8.66634ZM2.66634 10.5V3.83334C2.66634 3.30291 2.87705 2.7942 3.25213 2.41913C3.6272 2.04406 4.13591 1.83334 4.66634 1.83334C4.66634 1.83334 7.94567 1.84268 7.99967 1.84934V3.16668C7.99967 3.5203 8.14015 3.85944 8.3902 4.10949C8.64025 4.35954 8.97939 4.50001 9.33301 4.50001H10.6503C10.657 4.55401 10.6663 10.5 10.6663 10.5C10.6663 11.0304 10.4556 11.5392 10.0806 11.9142C9.70548 12.2893 9.19677 12.5 8.66634 12.5H4.66634C4.13591 12.5 3.6272 12.2893 3.25213 11.9142C2.87705 11.5392 2.66634 11.0304 2.66634 10.5ZM14.6663 5.83334V13.1667C14.6653 14.0504 14.3138 14.8976 13.6889 15.5225C13.064 16.1474 12.2167 16.499 11.333 16.5H5.33301C5.1562 16.5 4.98663 16.4298 4.8616 16.3048C4.73658 16.1797 4.66634 16.0102 4.66634 15.8333C4.66634 15.6565 4.73658 15.487 4.8616 15.3619C4.98663 15.2369 5.1562 15.1667 5.33301 15.1667H11.333C11.8634 15.1667 12.3721 14.956 12.7472 14.5809C13.1223 14.2058 13.333 13.6971 13.333 13.1667V5.83334C13.333 5.65653 13.4032 5.48696 13.5283 5.36194C13.6533 5.23692 13.8229 5.16668 13.9997 5.16668C14.1765 5.16668 14.3461 5.23692 14.4711 5.36194C14.5961 5.48696 14.6663 5.65653 14.6663 5.83334Z" fill="white"/>
</g>
<defs>
<clipPath id="clip0_1395_5936">
<rect width="16" height="16" fill="white" transform="translate(0 0.5)"/>
</clipPath>
</defs>
</svg>
