<svg width="24" height="24" viewBox="0 0 24 24" fill="none" xmlns="http://www.w3.org/2000/svg">
<path d="M24 23C24 23.2652 23.8946 23.5196 23.7071 23.7071C23.5196 23.8946 23.2652 24 23 24H3C1.346 24 0 22.654 0 21V1C0 0.734784 0.105357 0.48043 0.292893 0.292893C0.48043 0.105357 0.734784 0 1 0C1.26522 0 1.51957 0.105357 1.70711 0.292893C1.89464 0.48043 2 0.734784 2 1V21C2 21.551 2.449 22 3 22H23C23.2652 22 23.5196 22.1054 23.7071 22.2929C23.8946 22.4804 24 22.7348 24 23ZM21 5H17C16.7348 5 16.4804 5.10536 16.2929 5.29289C16.1054 5.48043 16 5.73478 16 6C16 6.26522 16.1054 6.51957 16.2929 6.70711C16.4804 6.89464 16.7348 7 17 7H20.563L15.706 11.707C15.5158 11.889 15.2627 11.9905 14.9995 11.9905C14.7363 11.9905 14.4832 11.889 14.293 11.707C13.8825 11.4059 13.4695 11.1082 13.054 10.814C11.916 9.741 9.977 9.781 8.892 10.865L4.306 15.279C4.11478 15.4629 4.00445 15.7153 3.9993 15.9806C3.99414 16.2458 4.09457 16.5023 4.2785 16.6935C4.46243 16.8847 4.71478 16.995 4.98005 17.0002C5.24532 17.0054 5.50178 16.9049 5.693 16.721L10.293 12.293C10.4832 12.111 10.7363 12.0095 10.9995 12.0095C11.2627 12.0095 11.5158 12.111 11.706 12.293C11.747 12.333 12.945 13.186 12.945 13.186C14.084 14.26 16.021 14.222 17.109 13.132L21.999 8.392V11.999C21.999 12.2642 22.1044 12.5186 22.2919 12.7061C22.4794 12.8936 22.7338 12.999 22.999 12.999C23.2642 12.999 23.5186 12.8936 23.7061 12.7061C23.8936 12.5186 23.999 12.2642 23.999 11.999V7.999C23.999 6.345 22.653 4.999 20.999 4.999L21 5Z" fill="black"/>
</svg>
