<svg width="24" height="24" viewBox="0 0 24 24" fill="none" xmlns="http://www.w3.org/2000/svg">
<path d="M23.1951 14.0852L21.0361 16.2422V17.9642C21.0361 19.6182 19.6901 20.9642 18.0361 20.9642H16.3151L14.1571 23.1212C13.5921 23.6872 12.8381 24.0002 12.0361 24.0002C11.2341 24.0002 10.4811 23.6882 9.91508 23.1212L7.75808 20.9642H6.03608C4.38208 20.9642 3.03608 19.6182 3.03608 17.9642V16.2422L0.879083 14.0852C0.317098 13.5222 0.00146484 12.7592 0.00146484 11.9637C0.00146484 11.1682 0.317098 10.4052 0.879083 9.84218L3.03608 7.68518V5.96418C3.03608 4.31018 4.38208 2.96418 6.03608 2.96418H7.75808L9.91508 0.80618C11.0491 -0.32882 13.0261 -0.32582 14.1581 0.80618L16.3151 2.96318H18.0361C18.3013 2.96318 18.5557 3.06854 18.7432 3.25607C18.9307 3.44361 19.0361 3.69796 19.0361 3.96318C19.0361 4.2284 18.9307 4.48275 18.7432 4.67029C18.5557 4.85782 18.3013 4.96318 18.0361 4.96318H15.9011C15.7697 4.96337 15.6397 4.93758 15.5183 4.8873C15.397 4.83701 15.2868 4.76322 15.1941 4.67018L12.7431 2.21918C12.5525 2.03761 12.2993 1.93632 12.0361 1.93632C11.7728 1.93632 11.5197 2.03761 11.3291 2.21918L8.87908 4.67018C8.78635 4.76318 8.67615 4.83694 8.55482 4.88722C8.43349 4.9375 8.30342 4.96332 8.17208 4.96318H6.03608C5.48408 4.96318 5.03608 5.41218 5.03608 5.96318V8.09818C5.03608 8.36318 4.93108 8.61818 4.74308 8.80518L2.29308 11.2552C1.90308 11.6452 1.90308 12.2792 2.29308 12.6702L4.74308 15.1202C4.83608 15.2129 4.90984 15.3231 4.96012 15.4444C5.01041 15.5658 5.03622 15.6958 5.03608 15.8272V17.9632C5.03608 18.2284 5.14144 18.4827 5.32898 18.6703C5.51651 18.8578 5.77087 18.9632 6.03608 18.9632H8.17208C8.43808 18.9632 8.69208 19.0682 8.87908 19.2562L11.3291 21.7062C11.5193 21.8881 11.7724 21.9897 12.0356 21.9897C12.2988 21.9897 12.5519 21.8881 12.7421 21.7062L15.1941 19.2562C15.2868 19.1632 15.397 19.0894 15.5184 19.0391C15.6397 18.9889 15.7697 18.963 15.9011 18.9632H18.0361C18.3013 18.9632 18.5557 18.8578 18.7432 18.6703C18.9307 18.4827 19.0361 18.2284 19.0361 17.9632V15.8272C19.0361 15.5612 19.1411 15.3072 19.3291 15.1202L21.7801 12.6702C22.1701 12.2802 22.1701 11.6452 21.7801 11.2552C21.5926 11.0675 21.4873 10.8131 21.4874 10.5478C21.4875 10.2826 21.5929 10.0282 21.7806 9.84068C21.9682 9.65317 22.2227 9.54788 22.4879 9.54798C22.7532 9.54807 23.0076 9.65354 23.1951 9.84118C23.756 10.4045 24.071 11.1672 24.071 11.9622C24.071 12.7572 23.756 13.5198 23.1951 14.0832V14.0852ZM10.7211 13.6622L7.70308 10.6742C7.60978 10.5817 7.49918 10.5086 7.3776 10.4589C7.25602 10.4091 7.12584 10.3839 6.99449 10.3845C6.86314 10.3851 6.7332 10.4116 6.61208 10.4624C6.49096 10.5132 6.38103 10.5874 6.28858 10.6807C6.19613 10.774 6.12297 10.8846 6.07326 11.0062C6.02355 11.1277 5.99828 11.2579 5.99888 11.3893C5.99949 11.5206 6.02595 11.6506 6.07678 11.7717C6.1276 11.8928 6.20178 12.0027 6.29508 12.0952L9.31408 15.0842C9.92808 15.6922 10.7361 15.9972 11.5431 15.9972C12.3501 15.9972 13.1601 15.6902 13.7751 15.0792L22.7051 6.20818C22.7983 6.11566 22.8723 6.00566 22.923 5.88449C22.9737 5.76332 22.9999 5.63334 23.0003 5.50201C23.0007 5.37068 22.9751 5.24056 22.9252 5.1191C22.8752 4.99764 22.8018 4.88723 22.7091 4.79418C22.6166 4.70091 22.5067 4.62678 22.3855 4.57604C22.2644 4.5253 22.1345 4.49894 22.0031 4.49848C21.8718 4.49801 21.7417 4.52345 21.6202 4.57333C21.4987 4.62321 21.3882 4.69656 21.2951 4.78918L12.3651 13.6612C11.9121 14.1122 11.1751 14.1122 10.7211 13.6622Z" fill="black"/>
</svg>
