<svg width="37" height="37" viewBox="0 0 37 37" fill="none" xmlns="http://www.w3.org/2000/svg">
<rect x="0.380078" y="0.632519" width="35.9556" height="35.9556" rx="5.50341" fill="#FFF8AD" stroke="white" stroke-width="0.733788"/>
<g clip-path="url(#clip0_1266_8155)">
<path d="M25.5385 13.6688L20.4754 8.59191C20.2073 8.31564 19.8865 8.09601 19.532 7.94602C19.1775 7.79603 18.7965 7.71875 18.4116 7.71875C18.0267 7.71875 17.6457 7.79603 17.2912 7.94602C16.9366 8.09601 16.6159 8.31564 16.3478 8.59191L11.2709 13.6688L18.3841 17.2185L25.5385 13.6688ZM27.4812 15.7188L28.4856 16.7232C28.7636 16.9903 28.9848 17.3107 29.1358 17.6654C29.2869 18.02 29.3648 18.4015 29.3648 18.787C29.3648 19.1725 29.2869 19.554 29.1358 19.9086C28.9848 20.2632 28.7636 20.5837 28.4856 20.8508L20.3947 29.0215C20.2029 29.2177 19.9797 29.3804 19.7343 29.503V19.5987L27.4812 15.7188ZM9.23466 15.7188L8.23028 16.7232C7.95229 16.9903 7.73112 17.3107 7.58004 17.6654C7.42895 18.02 7.35107 18.4015 7.35107 18.787C7.35107 19.1725 7.42895 19.554 7.58004 19.9086C7.73112 20.2632 7.95229 20.5837 8.23028 20.8508L16.3221 29.0215C16.5148 29.2178 16.7376 29.3811 16.9825 29.503V19.5987L9.23466 15.7188Z" fill="#9A8F1D"/>
</g>
<defs>
<clipPath id="clip0_1266_8155">
<rect width="22.0137" height="22.0137" fill="white" transform="translate(7.35107 7.60352)"/>
</clipPath>
</defs>
</svg>
