<svg width="38" height="38" viewBox="0 0 38 38" fill="none" xmlns="http://www.w3.org/2000/svg">
<rect x="0.882519" y="1.07002" width="35.9556" height="35.9556" rx="5.50341" fill="#85DAF9" stroke="white" stroke-width="0.733788"/>
<g clip-path="url(#clip0_1266_8154)">
<path d="M18.8328 14.4336C18.7039 14.5626 18.6316 14.7374 18.6316 14.9197C18.6316 15.102 18.7039 15.2769 18.8328 15.4059L21.0983 17.6714L18.8328 19.937C18.7652 20 18.711 20.0759 18.6734 20.1603C18.6358 20.2447 18.6156 20.3358 18.6139 20.4282C18.6123 20.5205 18.6293 20.6123 18.6639 20.698C18.6985 20.7836 18.75 20.8614 18.8153 20.9268C18.8806 20.9921 18.9584 21.0436 19.0441 21.0782C19.1298 21.1128 19.2215 21.1298 19.3139 21.1281C19.4063 21.1265 19.4973 21.1063 19.5817 21.0687C19.6661 21.0311 19.7421 20.9769 19.805 20.9093L22.5568 18.1576C22.6856 18.0286 22.7579 17.8538 22.7579 17.6714C22.7579 17.4891 22.6856 17.3143 22.5568 17.1853L19.805 14.4336C19.6761 14.3048 19.5012 14.2324 19.3189 14.2324C19.1366 14.2324 18.9618 14.3048 18.8328 14.4336ZM16.1361 15.4059C16.2576 15.2755 16.3238 15.103 16.3206 14.9248C16.3175 14.7465 16.2453 14.5765 16.1192 14.4505C15.9932 14.3244 15.8232 14.2522 15.6449 14.2491C15.4667 14.2459 15.2942 14.3121 15.1638 14.4336L12.4121 17.1853C12.2833 17.3143 12.2109 17.4891 12.2109 17.6714C12.2109 17.8538 12.2833 18.0286 12.4121 18.1576L15.1638 20.9093C15.2942 21.0308 15.4667 21.097 15.6449 21.0938C15.8232 21.0907 15.9932 21.0185 16.1192 20.8924C16.2453 20.7664 16.3175 20.5964 16.3206 20.4181C16.3238 20.2399 16.2576 20.0674 16.1361 19.937L13.8705 17.6714L16.1361 15.4059Z" fill="#000FCC"/>
<path fill-rule="evenodd" clip-rule="evenodd" d="M17.4845 8.04102C12.1654 8.04102 7.85352 12.3529 7.85352 17.672C7.85352 22.991 12.1654 27.303 17.4845 27.303C19.8968 27.303 22.1009 26.416 23.7905 24.9512L27.7759 28.9356C27.8389 29.0032 27.9148 29.0574 27.9992 29.095C28.0836 29.1326 28.1747 29.1529 28.267 29.1545C28.3594 29.1561 28.4511 29.1391 28.5368 29.1045C28.6225 29.0699 28.7003 29.0184 28.7656 28.9531C28.8309 28.8878 28.8824 28.81 28.917 28.7243C28.9516 28.6386 28.9686 28.5469 28.967 28.4545C28.9654 28.3622 28.9451 28.2711 28.9075 28.1867C28.8699 28.1023 28.8157 28.0264 28.7481 27.9634L24.7637 23.978C26.2834 22.229 27.1188 19.989 27.1155 17.672C27.1155 12.3529 22.8035 8.04102 17.4845 8.04102ZM9.22937 17.672C9.22937 16.5879 9.44289 15.5144 9.85775 14.5129C10.2726 13.5113 10.8807 12.6013 11.6472 11.8347C12.4138 11.0682 13.3238 10.4601 14.3254 10.0453C15.3269 9.63039 16.4004 9.41687 17.4845 9.41687C18.5686 9.41687 19.642 9.63039 20.6436 10.0453C21.6451 10.4601 22.5552 11.0682 23.3217 11.8347C24.0883 12.6013 24.6964 13.5113 25.1112 14.5129C25.5261 15.5144 25.7396 16.5879 25.7396 17.672C25.7396 19.8614 24.8699 21.9611 23.3217 23.5092C21.7736 25.0574 19.6739 25.9271 17.4845 25.9271C15.2951 25.9271 13.1954 25.0574 11.6472 23.5092C10.0991 21.9611 9.22937 19.8614 9.22937 17.672Z" fill="#000FCC"/>
</g>
<defs>
<clipPath id="clip0_1266_8154">
<rect width="22.0137" height="22.0137" fill="white" transform="translate(7.85352 8.04102)"/>
</clipPath>
</defs>
</svg>
