<svg width="37" height="37" viewBox="0 0 37 37" fill="none" xmlns="http://www.w3.org/2000/svg">
<rect x="0.366894" y="0.366894" width="35.9556" height="35.9556" rx="5.50341" fill="#E4FFE6" stroke="white" stroke-width="0.733788"/>
<g clip-path="url(#clip0_1266_8158)">
<path d="M25.3444 15.2545C24.6374 15.2562 23.9396 15.0939 23.3058 14.7805C22.6721 14.4671 22.1196 14.0111 21.6918 13.4482C21.264 12.8853 20.9725 12.2309 20.8402 11.5363C20.708 10.8418 20.7385 10.1261 20.9294 9.44531H9.44564C9.12128 9.44531 8.81021 9.57416 8.58086 9.80352C8.35151 10.0329 8.22266 10.3439 8.22266 10.6683V25.3441C8.22266 25.6684 8.35151 25.9795 8.58086 26.2088C8.81021 26.4382 9.12128 26.567 9.44564 26.567H26.5674C26.8917 26.567 27.2028 26.4382 27.4321 26.2088C27.6615 25.9795 27.7903 25.6684 27.7903 25.3441V14.5451C27.0589 15.009 26.2105 15.255 25.3444 15.2545ZM12.4542 11.8913C12.817 11.8913 13.1717 11.9989 13.4733 12.2004C13.775 12.402 14.0102 12.6885 14.149 13.0237C14.2878 13.3589 14.3242 13.7278 14.2534 14.0836C14.1826 14.4395 14.0079 14.7664 13.7513 15.0229C13.4948 15.2795 13.1679 15.4542 12.8121 15.525C12.4562 15.5957 12.0874 15.5594 11.7521 15.4206C11.4169 15.2817 11.1304 15.0466 10.9289 14.7449C10.7273 14.4432 10.6197 14.0886 10.6197 13.7257C10.6197 13.2392 10.813 12.7726 11.157 12.4286C11.501 12.0845 11.9676 11.8913 12.4542 11.8913ZM10.6686 23.5096V21.0025L14.3376 17.2846C14.4521 17.1707 14.6071 17.1068 14.7687 17.1068C14.9302 17.1068 15.0852 17.1707 15.1998 17.2846L16.7835 18.8317L12.0873 23.5096H10.6686ZM25.3444 23.5096H13.8178L17.6274 19.7L20.9294 16.398C21.044 16.2841 21.199 16.2201 21.3605 16.2201C21.5221 16.2201 21.6771 16.2841 21.7916 16.398L25.3444 19.9507V23.5096Z" fill="#59A16D"/>
<path d="M25.3446 13.7262C27.0331 13.7262 28.402 12.3574 28.402 10.6688C28.402 8.9802 27.0331 7.61133 25.3446 7.61133C23.656 7.61133 22.2871 8.9802 22.2871 10.6688C22.2871 12.3574 23.656 13.7262 25.3446 13.7262Z" fill="#59A16D"/>
</g>
<defs>
<clipPath id="clip0_1266_8158">
<rect width="22.0137" height="22.0137" fill="white" transform="translate(7 7)"/>
</clipPath>
</defs>
</svg>
