<svg width="38" height="37" viewBox="0 0 38 37" fill="none" xmlns="http://www.w3.org/2000/svg">
<rect x="1.09687" y="0.380566" width="35.9556" height="35.9556" rx="5.50341" fill="#F1CDAB" stroke="white" stroke-width="0.733788"/>
<path d="M12.0654 26.0559C11.9748 26.0564 11.8851 26.039 11.8013 26.0048C11.7175 25.9706 11.6412 25.9201 11.577 25.8564C11.4964 25.777 11.4367 25.6789 11.4031 25.5709C11.3695 25.4629 11.3631 25.3483 11.3843 25.2372L12.2511 19.5068C12.2724 19.3611 12.34 19.2261 12.4437 19.1216L20.8227 10.7908C21.2164 10.4172 21.7384 10.209 22.2811 10.209C22.8238 10.209 23.3458 10.4172 23.7395 10.7908L26.6425 13.6938C27.029 14.0808 27.2461 14.6053 27.2461 15.1522C27.2461 15.6991 27.029 16.2237 26.6425 16.6106L18.2842 24.9896C18.1798 25.0934 18.0447 25.1609 17.899 25.1822L12.1961 26.049L12.0654 26.0559ZM13.5719 19.9677L12.884 24.5493L17.4656 23.8614L25.7207 15.6475C25.7845 15.5833 25.8349 15.507 25.8692 15.4232C25.9034 15.3394 25.9207 15.2496 25.9202 15.1591C25.9195 14.9786 25.8478 14.8057 25.7207 14.6776L22.7626 11.747C22.6338 11.6189 22.4594 11.547 22.2777 11.547C22.0959 11.547 21.9216 11.6189 21.7927 11.747L13.5719 19.9677Z" fill="#BB7700"/>
<path d="M25.1974 17.7872C25.1069 17.7878 25.0172 17.7704 24.9334 17.7362C24.8495 17.7019 24.7733 17.6515 24.709 17.5877L19.8454 12.7241C19.7812 12.66 19.7304 12.5838 19.6956 12.5C19.6609 12.4162 19.6431 12.3264 19.6431 12.2357C19.6431 12.145 19.6609 12.0551 19.6956 11.9713C19.7304 11.8875 19.7812 11.8114 19.8454 11.7472C19.9095 11.6831 19.9857 11.6322 20.0695 11.5975C20.1533 11.5628 20.2431 11.5449 20.3338 11.5449C20.4245 11.5449 20.5143 11.5628 20.5981 11.5975C20.6819 11.6322 20.7581 11.6831 20.8222 11.7472L25.6859 16.6109C25.7504 16.6748 25.8015 16.7509 25.8365 16.8347C25.8714 16.9186 25.8894 17.0085 25.8894 17.0993C25.8894 17.1901 25.8714 17.28 25.8365 17.3639C25.8015 17.4477 25.7504 17.5238 25.6859 17.5877C25.6216 17.6515 25.5454 17.7019 25.4615 17.7362C25.3777 17.7704 25.288 17.7878 25.1974 17.7872Z" fill="#BB7700"/>
<path d="M25.2663 27.9891H11.5078C11.3253 27.9891 11.1503 27.9167 11.0213 27.7876C10.8923 27.6586 10.8198 27.4837 10.8198 27.3012C10.8198 27.1188 10.8923 26.9438 11.0213 26.8148C11.1503 26.6858 11.3253 26.6133 11.5078 26.6133H25.2663C25.4487 26.6133 25.6237 26.6858 25.7527 26.8148C25.8817 26.9438 25.9542 27.1188 25.9542 27.3012C25.9542 27.4837 25.8817 27.6586 25.7527 27.7876C25.6237 27.9167 25.4487 27.9891 25.2663 27.9891Z" fill="#BB7700"/>
<path d="M15.9518 17.5527L12.4572 20.9511C11.6454 21.756 11.9481 23.8748 12.753 24.6797C13.5578 25.4845 15.7592 25.684 16.5641 24.8792L20.6916 20.6828C20.6916 20.6828 16.7498 22.4439 15.828 21.412C14.9062 20.3801 15.9518 17.5527 15.9518 17.5527Z" fill="#BB7700"/>
</svg>
