<svg width="38" height="37" viewBox="0 0 38 37" fill="none" xmlns="http://www.w3.org/2000/svg">
<rect x="0.81416" y="0.380566" width="35.9556" height="35.9556" rx="5.50341" fill="#E4FFE6" stroke="white" stroke-width="0.733788"/>
<path d="M21.5188 26.5165C19.8038 27.0937 17.95 27.112 16.224 26.5687C14.498 26.0255 12.9888 24.9487 11.9136 23.4933C10.8383 22.0379 10.2525 20.2789 10.2404 18.4695C10.2283 16.6601 10.7905 14.8934 11.8462 13.4238C12.9018 11.9541 14.3964 10.8572 16.115 10.2909C17.8336 9.72458 19.6875 9.71805 21.41 10.2722C23.1326 10.8264 24.6349 11.9128 25.7009 13.375C26.7668 14.8371 27.3415 16.5998 27.3421 18.4093C27.3144 19.1029 27.2305 19.7931 27.091 20.473" stroke="#59A16D" stroke-width="1.10068"/>
<path d="M20.8066 24.9277C20.1915 25.6266 19.5171 26.2711 18.791 26.8539" stroke="#59A16D" stroke-width="1.10068"/>
<path d="M18.791 9.75977C21.0992 11.7764 22.5274 14.6156 22.7707 17.6709C22.8206 18.2256 22.831 18.783 22.8016 19.3391" stroke="#59A16D" stroke-width="1.10068"/>
<path d="M18.7914 9.75977C17.5391 10.8513 16.533 12.1965 15.8398 13.7063C15.1466 15.216 14.7821 16.8558 14.7705 18.5171C14.7705 24.0893 17.2746 25.7403 18.7811 26.8547" stroke="#59A16D" stroke-width="1.10068"/>
<path d="M11.3516 14.1973H26.2727" stroke="#59A16D" stroke-width="1.10068"/>
<path d="M18.791 9.75586V26.8543" stroke="#59A16D" stroke-width="1.10068"/>
<path d="M11.585 22.9941H20.5246" stroke="#59A16D" stroke-width="1.10068"/>
<path d="M10.2402 18.5165L27.3421 18.3066" stroke="#59A16D" stroke-width="1.10068"/>
<path d="M26.2112 26.9578L27.735 25.4306L24.9833 22.6789L26.5483 21.678C26.5711 21.6645 26.5893 21.6444 26.6004 21.6204C26.6116 21.5963 26.6151 21.5695 26.6106 21.5434C26.6062 21.5173 26.5939 21.4931 26.5754 21.4742C26.5569 21.4552 26.533 21.4423 26.507 21.4372L21.2478 20.2058C21.2261 20.2014 21.2036 20.2024 21.1824 20.2088C21.1612 20.2152 21.1419 20.2267 21.1262 20.2424C21.1105 20.2581 21.099 20.2774 21.0926 20.2986C21.0862 20.3199 21.0852 20.3423 21.0896 20.364L22.2316 25.723C22.2371 25.749 22.2502 25.7729 22.2692 25.7914C22.2883 25.81 22.3125 25.8225 22.3387 25.8273C22.3649 25.8321 22.3919 25.829 22.4163 25.8184C22.4407 25.8078 22.4614 25.7901 22.4758 25.7677L23.4595 24.2061L26.2112 26.9578Z" stroke="#59A16D" stroke-width="1.10068"/>
</svg>
