<svg width="37" height="37" viewBox="0 0 37 37" fill="none" xmlns="http://www.w3.org/2000/svg">
<rect x="0.380078" y="0.380566" width="35.9556" height="35.9556" rx="5.50341" fill="#DCEFF7" stroke="white" stroke-width="0.733788"/>
<g clip-path="url(#clip0_1266_8151)">
<path d="M20.9344 24.7637H10.6772V10.0524H20.9316V11.1529H22.3099V9.75195C22.3108 8.43227 21.2272 7.35156 19.9085 7.35156H11.7021C10.3815 7.35156 9.30078 8.43227 9.30078 9.75195V26.9639C9.30078 28.2855 10.3815 29.3652 11.7021 29.3652H19.9085C21.2272 29.3652 22.3108 28.2855 22.3108 26.9639V24.7382H20.9344V24.7637ZM15.8039 28.1636C15.1955 28.1636 14.7043 27.6714 14.7043 27.064C14.7043 26.4547 15.1955 25.9635 15.8039 25.9635C16.4132 25.9635 16.9054 26.4556 16.9054 27.064C16.9054 27.6714 16.4132 28.1636 15.8039 28.1636Z" fill="#0252B1"/>
<path d="M14.9293 11.5293H11.8525V13.4054H14.9293V11.5293Z" fill="#0252B1"/>
<path d="M14.9293 16.332H11.8525V18.2082H14.9293V16.332Z" fill="#0252B1"/>
<path d="M14.9293 21.3594H11.8525V23.2345H14.9293V21.3594Z" fill="#0252B1"/>
<path d="M25.8495 17.1574C25.7408 16.5887 25.5207 16.0625 25.209 15.6025L26.3124 14.4982L25.1854 13.3749L24.0839 14.4774C23.6257 14.1638 23.0967 13.9465 22.5299 13.8369V12.2734H20.9353V13.8369C20.3676 13.9465 19.8433 14.1647 19.3804 14.4774L18.2808 13.3749L17.1538 14.4991L18.2553 15.6034C17.9445 16.0635 17.7254 16.5896 17.6167 17.1574H16.0552V18.751H17.6167C17.7253 19.3169 17.9455 19.8431 18.2562 20.305L17.1538 21.4075L18.2808 22.5297L19.3832 21.4282C19.8442 21.7418 20.3704 21.96 20.9381 22.0706V23.6312H22.5327V22.0697C23.0995 21.961 23.6247 21.7409 24.0867 21.4292L25.1882 22.5307L26.3152 21.4075L25.2118 20.305C25.5235 19.845 25.7427 19.3179 25.8523 18.7501H27.4148V17.1574H25.8495ZM21.7345 19.6882C20.7757 19.6882 19.9972 18.9136 19.9972 17.9538C19.9972 16.995 20.7756 16.2156 21.7345 16.2156C22.6943 16.2156 23.4689 16.994 23.4689 17.9538C23.4689 18.9145 22.6924 19.6882 21.7345 19.6882Z" fill="#0252B1"/>
</g>
<defs>
<clipPath id="clip0_1266_8151">
<rect width="22.0137" height="22.0137" fill="white" transform="translate(7.35107 7.35156)"/>
</clipPath>
</defs>
</svg>
